# xmcd
#
# Track frame offsets:
#	150
#	6298
#	23203
#	39439
#	56787
#	71798
#	86921
#	100766
#	114769
#	131289
#	147099
#	167740
#	185809
#	200579
#	214644
#	233074
#	248071
#	261864
#
# Disc length: 3691 seconds
#
# Revision: 1
# Processed by: cddbd v1.5.2PL0 Copyright (c) Steve Scherf et al.
# Submitted via: audiograbber 1.83.01
#
DISCID=fc0e6912
DTITLE=STELLIOS KAZANTZIDES - MIA ZOH
DYEAR=2006
DGENRE=
TTITLE0=PROPLOGOS
TTITLE1=O TRAGOYDISTHS
TTITLE2=THS GERAKINAS GIOS
TTITLE3=DEN THA KSANAGAPISO
TTITLE4=PARE TA XNARIA MOY
TTITLE5=PRIN TO XARAMA MONAXOS
TTITLE6=TO AGRIOLOYLOYDO
TTITLE7=TO TELEYTAIO BRADI MOY
TTITLE8=STHN HELLAS TOY 2000
TTITLE9=BRADIAZEI
TTITLE10=SAN APOKLHROS GYRIZO
TTITLE11=KATASTROFES KAI SYMFORES
TTITLE12=PEFTOYN THS BROXHS OI STALES
TTITLE13=TI GYREYEIS PALIKARI
TTITLE14=GIATI ME KSYPNHSES PROI
TTITLE15=NYKTES MAGIKES
TTITLE16=GYRIZO APO THN NYKTA
TTITLE17=TSIAMPASIN
EXTD=
EXTT0=
EXTT1=
EXTT2=
EXTT3=
EXTT4=
EXTT5=
EXTT6=
EXTT7=
EXTT8=
EXTT9=
EXTT10=
EXTT11=
EXTT12=
EXTT13=
EXTT14=
EXTT15=
EXTT16=
EXTT17=
PLAYORDER=
